<?xml version="1.0" encoding="iso-8859-1"?>
<!-- Generator: Adobe Illustrator 17.1.0, SVG Export Plug-In . SVG Version: 6.00 Build 0)  -->
<!DOCTYPE svg PUBLIC "-//W3C//DTD SVG 1.1//EN" "http://www.w3.org/Graphics/SVG/1.1/DTD/svg11.dtd">
<svg version="1.1" id="Capa_1" xmlns="http://www.w3.org/2000/svg" xmlns:xlink="http://www.w3.org/1999/xlink" x="0px" y="0px"
	 viewBox="0 0 339.281 339.281" style="enable-background:new 0 0 339.281 339.281;" xml:space="preserve">
<g>
	<g>
		<path d="M169.641,90.478c-43.771,0-84.993-3.301-116.071-9.293C17.022,74.137,0,64.772,0,51.713s17.022-22.424,53.57-29.472
			c31.078-5.992,72.3-9.293,116.071-9.293s84.993,3.301,116.071,9.293c36.548,7.048,53.57,16.412,53.57,29.472
			s-17.022,22.424-53.57,29.472C254.633,87.177,213.412,90.478,169.641,90.478z M15.134,51.713
			c1.696,2.622,12.294,9.57,45.411,15.512c29.663,5.322,68.407,8.253,109.096,8.253s79.434-2.931,109.096-8.253
			c33.117-5.941,43.715-12.89,45.411-15.512c-1.696-2.622-12.294-9.57-45.411-15.512c-29.663-5.322-68.407-8.253-109.096-8.253
			s-79.434,2.931-109.096,8.253C27.428,42.143,16.83,49.091,15.134,51.713z"/>
	</g>
	<g>
		<path d="M169.641,133.521c-38.504,0-74.773-2.904-102.127-8.179c-32.607-6.288-47.794-14.798-47.794-26.783
			c0-4.143,3.358-7.5,7.5-7.5c3.974,0,7.225,3.09,7.483,6.998c1.485,2.176,11.106,8.29,40.411,13.432
			c25.845,4.535,59.415,7.032,94.526,7.032c40.975,0,79.726-3.415,106.319-9.368c4.044-0.908,8.052,1.638,8.958,5.68
			c0.905,4.042-1.638,8.053-5.68,8.957C251.616,129.974,211.669,133.521,169.641,133.521z"/>
	</g>
	<g>
		<path d="M119.162,170.393c-0.218,0-0.438-0.009-0.658-0.028c-21.783-1.894-40.357-4.961-53.715-8.869
			c-10.992-3.217-25.605-8.813-25.605-20.227c0-4.143,3.358-7.5,7.5-7.5c3.858,0,7.035,2.913,7.453,6.659
			c2.512,2.885,18.731,10.912,65.667,14.993c4.127,0.358,7.181,3.995,6.822,8.121C126.285,167.447,123.009,170.393,119.162,170.393z
			"/>
	</g>
	<g>
		<path d="M209.104,171.229c-3.919,0-7.218-3.044-7.477-7.011c-0.27-4.134,2.862-7.703,6.995-7.974
			c51.127-3.339,73.249-11.896,76.521-15.809c0.414-3.751,3.593-6.668,7.454-6.668c4.142,0,7.5,3.357,7.5,7.5
			c0,12.103-16.62,17.897-29.121,21.204c-15.545,4.111-36.769,7.134-61.377,8.741C209.435,171.225,209.269,171.229,209.104,171.229z
			"/>
	</g>
	<g>
		<path d="M169.641,212.499c-29.299,0-56.914-2.214-77.758-6.233c-26.073-5.027-37.7-11.838-37.7-22.084c0-4.143,3.358-7.5,7.5-7.5
			c3.751,0,6.858,2.753,7.412,6.349c4.967,5.095,39.221,14.469,100.546,14.469c8.293,0,16.56-0.185,24.57-0.55
			c4.131-0.164,7.645,3.012,7.833,7.151c0.188,4.138-3.013,7.645-7.151,7.833C186.657,212.309,178.161,212.499,169.641,212.499z"/>
	</g>
	<g>
		<path d="M254.545,204.541c-3.374,0-6.439-2.293-7.278-5.716c-0.986-4.023,1.476-8.084,5.499-9.07
			c12.509-3.066,16.439-5.887,17.43-6.777c0.576-3.569,3.671-6.296,7.404-6.296c4.142,0,7.5,3.357,7.5,7.5
			c0,11.733-16.415,17.115-28.762,20.142C255.737,204.471,255.136,204.541,254.545,204.541z"/>
	</g>
	<g>
		<path d="M102.227,244.552c-0.567,0-1.142-0.064-1.718-0.2c-11.793-2.764-25.33-7.287-25.33-17.823c0-4.143,3.358-7.5,7.5-7.5
			c3.52,0,6.473,2.424,7.281,5.693c1.109,0.801,4.637,2.839,13.972,5.026c4.033,0.944,6.536,4.98,5.591,9.013
			C108.712,242.218,105.63,244.552,102.227,244.552z"/>
	</g>
	<g>
		<path d="M168.614,250.599c-8.945,0-17.763-0.259-26.21-0.771c-4.135-0.25-7.283-3.805-7.033-7.939s3.802-7.278,7.939-7.033
			c8.146,0.493,16.66,0.743,25.304,0.743c19.948,0,39.25-1.36,54.35-3.83c17.249-2.822,22.85-5.998,24.304-7.048
			c0.809-3.269,3.762-5.692,7.281-5.692c4.142,0,7.5,3.357,7.5,7.5c0,11.571-16.701,16.275-31.25,19.081
			C214.115,248.827,192.03,250.599,168.614,250.599z"/>
	</g>
	<g>
		<path d="M169.641,288.564c-18.158,0-35.298-1.377-48.265-3.877c-11.864-2.287-25.483-6.219-25.483-16.396
			c0-4.143,3.358-7.5,7.5-7.5c3.289,0,6.084,2.117,7.095,5.063c4.648,2.919,25.062,7.71,59.153,7.71s54.505-4.791,59.153-7.71
			c1.011-2.946,3.806-5.063,7.095-5.063c4.142,0,7.5,3.357,7.5,7.5c0,10.178-13.619,14.109-25.483,16.396
			C204.939,287.188,187.798,288.564,169.641,288.564z"/>
	</g>
	<g>
		<path d="M169.641,326.333c-11.931,0-23.217-0.909-31.781-2.561c-5.583-1.077-18.656-3.598-18.656-13.219
			c0-4.143,3.358-7.5,7.5-7.5c2.873,0,5.369,1.615,6.628,3.987c3.775,1.698,16.595,4.292,36.308,4.292s32.533-2.594,36.308-4.292
			c1.26-2.372,3.755-3.987,6.628-3.987c4.142,0,7.5,3.357,7.5,7.5c0,9.621-13.073,12.142-18.656,13.219
			C192.858,325.424,181.571,326.333,169.641,326.333z"/>
	</g>
</g>
<g>
</g>
<g>
</g>
<g>
</g>
<g>
</g>
<g>
</g>
<g>
</g>
<g>
</g>
<g>
</g>
<g>
</g>
<g>
</g>
<g>
</g>
<g>
</g>
<g>
</g>
<g>
</g>
<g>
</g>
</svg>
